<svg width="25" height="25" xmlns="http://www.w3.org/2000/svg" xmlns:xlink="http://www.w3.org/1999/xlink" xmlns:svgjs="http://svgjs.com/svgjs" viewBox="0 0.006 25 24.989" fill="#0e1a35"><svg xmlns="http://www.w3.org/2000/svg" width="25" height="25" viewBox="1.005 1.01 23.99 23.979"><path paint-order="stroke fill markers" fill-rule="evenodd" d="M24.995 21.872l-6.399-6.348a9.35 9.35 0 0 0 1.478-5.054c0-5.216-4.277-9.46-9.534-9.46-5.258 0-9.535 4.244-9.535 9.46 0 5.216 4.277 9.46 9.535 9.46a9.532 9.532 0 0 0 4.872-1.331l6.44 6.39 3.143-3.117zM4.56 10.47c0-3.271 2.682-5.933 5.98-5.933 3.297 0 5.98 2.662 5.98 5.933 0 3.272-2.683 5.934-5.98 5.934-3.298 0-5.98-2.662-5.98-5.934z"/></svg></svg>